<?xml version="1.0" encoding="UTF-8" standalone="no"?>
<!DOCTYPE svg PUBLIC "-//W3C//DTD SVG 1.1//EN" "http://www.w3.org/Graphics/SVG/1.1/DTD/svg11.dtd">
<svg width="100%" height="100%" viewBox="0 0 64 64" version="1.1" xmlns="http://www.w3.org/2000/svg" xmlns:xlink="http://www.w3.org/1999/xlink" xml:space="preserve" xmlns:serif="http://www.serif.com/" style="fill-rule:evenodd;clip-rule:evenodd;stroke-linejoin:round;stroke-miterlimit:2;">
    <g>
        <path d="M7.2,27C3.776,27 1,24.224 1,20.8L7.364,8.4L56.635,8.4L62.999,20.8C62.999,24.224 60.223,27 56.799,27L56.799,45.6C56.799,52.444 51.243,58 44.399,58L19.599,58C12.755,58 7.199,52.444 7.199,45.6L7.199,27L7.2,27Z" style="fill:rgb(0,178,166);stroke:white;stroke-width:2px;"/>
        <path d="M7.2,20.8C7.2,13.956 12.756,8.4 19.6,8.4L44.4,8.4C51.244,8.4 56.8,13.956 56.8,20.8L56.8,45.6C56.8,52.444 51.244,58 44.4,58L19.6,58C12.756,58 7.2,52.444 7.2,45.6L7.2,20.8Z" style="fill:rgb(0,178,166);"/>
        <path d="M13.401,20.8L17.219,8.4L27.073,8.4L25.801,20.8L25.8,20.8C25.8,24.225 23.025,27 19.6,27C16.176,27 13.4,24.225 13.4,20.8L13.401,20.8ZM38.201,20.8L36.927,8.4L46.781,8.4L50.601,20.8L50.6,20.8C50.6,24.225 47.825,27 44.4,27C40.976,27 38.2,24.225 38.2,20.8L38.201,20.8Z" style="fill:white;fill-rule:nonzero;"/>
        <g>
            <path d="M13.4,20.8C13.4,24.224 10.624,27 7.2,27C3.776,27 1,24.224 1,20.8L7.364,8.4L17.219,8.4L13.4,20.8ZM38.2,20.8C38.2,24.224 35.424,27 32,27C28.576,27 25.8,24.224 25.8,20.8L27.073,8.4L36.928,8.4L38.201,20.8L38.2,20.8ZM63,20.8C63,24.224 60.224,27 56.8,27C53.376,27 50.6,24.224 50.6,20.8L46.781,8.4L56.636,8.4L63,20.8Z" style="fill:rgb(41,63,84);fill-rule:nonzero;"/>
        </g>
        <g transform="matrix(1,0,0,1,7.793142,47.4)">
            <path d="M7.926,-2.443C8.759,-2.443 9.436,-2.535 9.956,-2.718C10.942,-3.07 11.435,-3.724 11.435,-4.68C11.435,-5.238 11.191,-5.67 10.701,-5.976C10.212,-6.274 9.443,-6.538 8.396,-6.767L6.607,-7.169C4.848,-7.566 3.632,-7.998 2.959,-8.465C1.82,-9.245 1.25,-10.464 1.25,-12.124C1.25,-13.638 1.801,-14.895 2.902,-15.897C4.003,-16.899 5.62,-17.4 7.754,-17.4C9.535,-17.4 11.055,-16.927 12.313,-15.983C13.571,-15.039 14.23,-13.668 14.291,-11.871L10.896,-11.871C10.835,-12.888 10.392,-13.611 9.566,-14.039C9.015,-14.322 8.331,-14.463 7.513,-14.463C6.603,-14.463 5.876,-14.28 5.333,-13.913C4.791,-13.546 4.519,-13.033 4.519,-12.376C4.519,-11.772 4.787,-11.321 5.322,-11.022C5.666,-10.824 6.4,-10.59 7.524,-10.323L10.437,-9.623C11.714,-9.317 12.678,-8.908 13.328,-8.396C14.337,-7.601 14.842,-6.45 14.842,-4.943C14.842,-3.399 14.251,-2.116 13.07,-1.095C11.888,-0.075 10.22,0.436 8.063,0.436C5.861,0.436 4.129,-0.067 2.867,-1.072C1.606,-2.078 0.975,-3.46 0.975,-5.219L4.347,-5.219C4.454,-4.446 4.664,-3.869 4.978,-3.487C5.551,-2.791 6.534,-2.443 7.926,-2.443Z" style="fill:white;fill-rule:nonzero;"/>
            <path d="M27.459,-6.515L27.459,-16.906L31.049,-16.906L31.049,-6.515C31.049,-4.718 30.769,-3.319 30.211,-2.317C29.171,-0.482 27.187,0.436 24.258,0.436C21.33,0.436 19.342,-0.482 18.294,-2.317C17.736,-3.319 17.457,-4.718 17.457,-6.515L17.457,-16.906L21.047,-16.906L21.047,-6.515C21.047,-5.353 21.185,-4.504 21.46,-3.969C21.888,-3.02 22.821,-2.546 24.258,-2.546C25.688,-2.546 26.617,-3.02 27.046,-3.969C27.321,-4.504 27.459,-5.353 27.459,-6.515Z" style="fill:white;fill-rule:nonzero;"/>
            <path d="M41.601,-6.079L38.011,-6.079L38.011,0L34.501,0L34.501,-16.906L41.865,-16.906C43.562,-16.906 44.915,-16.471 45.925,-15.599C46.934,-14.727 47.439,-13.378 47.439,-11.55C47.439,-9.554 46.934,-8.144 45.925,-7.318C44.915,-6.492 43.474,-6.079 41.601,-6.079ZM43.252,-9.6C43.711,-10.005 43.941,-10.648 43.941,-11.527C43.941,-12.406 43.709,-13.033 43.247,-13.408C42.784,-13.783 42.136,-13.97 41.302,-13.97L38.011,-13.97L38.011,-8.992L41.302,-8.992C42.136,-8.992 42.786,-9.195 43.252,-9.6Z" style="fill:white;fill-rule:nonzero;"/>
        </g>
    </g>
</svg>
